HIERARCHY
ROOT Hips
{
	OFFSET -19.878815 -49.619598 87.647690
	CHANNELS 6 Xposition Yposition Zposition Zrotation Yrotation Xrotation
	JOINT Spine
	{
		OFFSET 0.000000 2.080109 8.814247
		CHANNELS 6 Xposition Yposition Zposition Zrotation Yrotation Xrotation
		JOINT Spine1
		{
			OFFSET 0.000000 0.000000 8.844139
			CHANNELS 6 Xposition Yposition Zposition Zrotation Yrotation Xrotation
			JOINT Spine2
			{
				OFFSET 0.000000 0.000000 11.682266
				CHANNELS 6 Xposition Yposition Zposition Zrotation Yrotation Xrotation
				JOINT Spine3
				{
					OFFSET 0.000000 0.000004 11.746704
					CHANNELS 6 Xposition Yposition Zposition Zrotation Yrotation Xrotation
					JOINT Neck
					{
						OFFSET 0.000000 0.000000 17.658264
						CHANNELS 6 Xposition Yposition Zposition Zrotation Yrotation Xrotation
						JOINT Neck1
						{
							OFFSET 0.000000 0.000000 5.101517
							CHANNELS 6 Xposition Yposition Zposition Zrotation Yrotation Xrotation
							JOINT Head
							{
								OFFSET 0.000000 0.000000 5.101517
								CHANNELS 6 Xposition Yposition Zposition Zrotation Yrotation Xrotation
								JOINT HeadEnd
								{
									OFFSET 0.000000 0.000000 11.655090
									CHANNELS 6 Xposition Yposition Zposition Zrotation Yrotation Xrotation
									End Site
									{
										OFFSET 0.000000 0.000000 0.100006
									}
								}
							}
						}
					}
					JOINT RightShoulder
					{
						OFFSET -2.625389 0.000000 11.175217
						CHANNELS 6 Xposition Yposition Zposition Zrotation Yrotation Xrotation
						JOINT RightArm
						{
							OFFSET 0.000000 0.000000 10.434708
							CHANNELS 6 Xposition Yposition Zposition Zrotation Yrotation Xrotation
							JOINT RightForeArm
							{
								OFFSET 0.000000 0.000004 29.628418
								CHANNELS 6 Xposition Yposition Zposition Zrotation Yrotation Xrotation
								JOINT RightHand
								{
									OFFSET 0.000000 0.000000 22.857605
									CHANNELS 6 Xposition Yposition Zposition Zrotation Yrotation Xrotation
									JOINT RightHandThumb1
									{
										OFFSET -2.867323 -2.944290 3.959564
										CHANNELS 6 Xposition Yposition Zposition Zrotation Yrotation Xrotation
										JOINT RightHandThumb2
										{
											OFFSET 0.000000 0.000000 3.350403
											CHANNELS 6 Xposition Yposition Zposition Zrotation Yrotation Xrotation
											JOINT RightHandThumb3
											{
												OFFSET 0.000000 0.000000 3.756516
												CHANNELS 6 Xposition Yposition Zposition Zrotation Yrotation Xrotation
												JOINT RightHandThumb4
												{
													OFFSET 0.000000 0.000000 3.147339
													CHANNELS 6 Xposition Yposition Zposition Zrotation Yrotation Xrotation
													End Site
													{
														OFFSET 0.000000 0.000000 0.100006
													}
												}
											}
										}
									}
									JOINT RightHandIndex1
									{
										OFFSET -0.086752 -2.345280 10.030899
										CHANNELS 6 Xposition Yposition Zposition Zrotation Yrotation Xrotation
										JOINT RightHandIndex2
										{
											OFFSET 0.000000 0.000000 4.061096
											CHANNELS 6 Xposition Yposition Zposition Zrotation Yrotation Xrotation
											JOINT RightHandIndex3
											{
												OFFSET 0.000000 0.000000 3.248871
												CHANNELS 6 Xposition Yposition Zposition Zrotation Yrotation Xrotation
												JOINT RightHandIndex4
												{
													OFFSET 0.000000 0.000000 2.639709
													CHANNELS 6 Xposition Yposition Zposition Zrotation Yrotation Xrotation
													End Site
													{
														OFFSET 0.000000 0.000000 0.100006
													}
												}
											}
										}
									}
									JOINT RightHandMiddle1
									{
										OFFSET 0.104101 -0.006767 9.502945
										CHANNELS 6 Xposition Yposition Zposition Zrotation Yrotation Xrotation
										JOINT RightHandMiddle2
										{
											OFFSET 0.000000 0.000000 4.568726
											CHANNELS 6 Xposition Yposition Zposition Zrotation Yrotation Xrotation
											JOINT RightHandMiddle3
											{
												OFFSET 0.000000 0.000000 3.654984
												CHANNELS 6 Xposition Yposition Zposition Zrotation Yrotation Xrotation
												JOINT RightHandMiddle4
												{
													OFFSET 0.000000 0.000000 2.741241
													CHANNELS 6 Xposition Yposition Zposition Zrotation Yrotation Xrotation
													End Site
													{
														OFFSET 0.000000 0.000000 0.100006
													}
												}
											}
										}
									}
									JOINT RightHandRing1
									{
										OFFSET 0.086752 2.267441 8.921707
										CHANNELS 6 Xposition Yposition Zposition Zrotation Yrotation Xrotation
										JOINT RightHandRing2
										{
											OFFSET 0.000000 0.000000 4.061096
											CHANNELS 6 Xposition Yposition Zposition Zrotation Yrotation Xrotation
											JOINT RightHandRing3
											{
												OFFSET 0.000000 0.000000 3.654984
												CHANNELS 6 Xposition Yposition Zposition Zrotation Yrotation Xrotation
												JOINT RightHandRing4
												{
													OFFSET 0.000000 0.000000 2.741241
													CHANNELS 6 Xposition Yposition Zposition Zrotation Yrotation Xrotation
													End Site
													{
														OFFSET 0.000000 0.000000 0.100006
													}
												}
											}
										}
									}
									JOINT RightHandPinky1
									{
										OFFSET -0.173504 4.467197 7.976990
										CHANNELS 6 Xposition Yposition Zposition Zrotation Yrotation Xrotation
										JOINT RightHandPinky2
										{
											OFFSET 0.000000 0.000000 3.350403
											CHANNELS 6 Xposition Yposition Zposition Zrotation Yrotation Xrotation
											JOINT RightHandPinky3
											{
												OFFSET 0.000000 0.000000 2.842758
												CHANNELS 6 Xposition Yposition Zposition Zrotation Yrotation Xrotation
												JOINT RightHandPinky4
												{
													OFFSET 0.000000 0.000000 2.639709
													CHANNELS 6 Xposition Yposition Zposition Zrotation Yrotation Xrotation
													End Site
													{
														OFFSET 0.000000 0.000000 0.100006
													}
												}
											}
										}
									}
									JOINT RightForeArmEnd
									{
										OFFSET 0.000000 0.000000 0.000000
										CHANNELS 6 Xposition Yposition Zposition Zrotation Yrotation Xrotation
										End Site
										{
											OFFSET 0.000000 0.000000 0.100006
										}
									}
								}
								JOINT RightArmEnd
								{
									OFFSET 0.000000 0.000000 0.000000
									CHANNELS 6 Xposition Yposition Zposition Zrotation Yrotation Xrotation
									End Site
									{
										OFFSET 0.000000 0.000000 0.100006
									}
								}
							}
						}
					}
					JOINT LeftShoulder
					{
						OFFSET 2.625389 0.000000 11.175217
						CHANNELS 6 Xposition Yposition Zposition Zrotation Yrotation Xrotation
						JOINT LeftArm
						{
							OFFSET 0.000000 0.000000 10.813629
							CHANNELS 6 Xposition Yposition Zposition Zrotation Yrotation Xrotation
							JOINT LeftForeArm
							{
								OFFSET 0.000000 0.000004 28.724777
								CHANNELS 6 Xposition Yposition Zposition Zrotation Yrotation Xrotation
								JOINT LeftHand
								{
									OFFSET 0.644384 0.328873 25.716171
									CHANNELS 6 Xposition Yposition Zposition Zrotation Yrotation Xrotation
									JOINT LeftHandThumb1
									{
										OFFSET 2.867323 -2.944290 3.959564
										CHANNELS 6 Xposition Yposition Zposition Zrotation Yrotation Xrotation
										JOINT LeftHandThumb2
										{
											OFFSET 0.000000 0.000000 3.350403
											CHANNELS 6 Xposition Yposition Zposition Zrotation Yrotation Xrotation
											JOINT LeftHandThumb3
											{
												OFFSET 0.000000 0.000000 3.756516
												CHANNELS 6 Xposition Yposition Zposition Zrotation Yrotation Xrotation
												JOINT LeftHandThumb4
												{
													OFFSET 0.000000 0.000000 3.100006
													CHANNELS 6 Xposition Yposition Zposition Zrotation Yrotation Xrotation
													End Site
													{
														OFFSET 0.000000 0.000000 0.100006
													}
												}
											}
										}
									}
									JOINT LeftHandIndex1
									{
										OFFSET 0.086752 -2.345280 10.030899
										CHANNELS 6 Xposition Yposition Zposition Zrotation Yrotation Xrotation
										JOINT LeftHandIndex2
										{
											OFFSET 0.000000 0.000000 4.061096
											CHANNELS 6 Xposition Yposition Zposition Zrotation Yrotation Xrotation
											JOINT LeftHandIndex3
											{
												OFFSET 0.000000 0.000000 3.248871
												CHANNELS 6 Xposition Yposition Zposition Zrotation Yrotation Xrotation
												JOINT LeftHandIndex4
												{
													OFFSET 0.000000 0.000000 2.639709
													CHANNELS 6 Xposition Yposition Zposition Zrotation Yrotation Xrotation
													End Site
													{
														OFFSET 0.000000 0.000000 0.100006
													}
												}
											}
										}
									}
									JOINT LeftHandMiddle1
									{
										OFFSET -0.104101 -0.006767 9.502945
										CHANNELS 6 Xposition Yposition Zposition Zrotation Yrotation Xrotation
										JOINT LeftHandMiddle2
										{
											OFFSET 0.000000 0.000000 4.568726
											CHANNELS 6 Xposition Yposition Zposition Zrotation Yrotation Xrotation
											JOINT LeftHandMiddle3
											{
												OFFSET 0.000000 0.000000 3.654984
												CHANNELS 6 Xposition Yposition Zposition Zrotation Yrotation Xrotation
												JOINT LeftHandMiddle4
												{
													OFFSET 0.000000 0.000000 2.741241
													CHANNELS 6 Xposition Yposition Zposition Zrotation Yrotation Xrotation
													End Site
													{
														OFFSET 0.000000 0.000000 0.100006
													}
												}
											}
										}
									}
									JOINT LeftHandRing1
									{
										OFFSET -0.086752 2.267441 8.921707
										CHANNELS 6 Xposition Yposition Zposition Zrotation Yrotation Xrotation
										JOINT LeftHandRing2
										{
											OFFSET 0.000000 0.000000 4.061096
											CHANNELS 6 Xposition Yposition Zposition Zrotation Yrotation Xrotation
											JOINT LeftHandRing3
											{
												OFFSET 0.000000 0.000000 3.654984
												CHANNELS 6 Xposition Yposition Zposition Zrotation Yrotation Xrotation
												JOINT LeftHandRing4
												{
													OFFSET 0.000000 0.000000 2.741241
													CHANNELS 6 Xposition Yposition Zposition Zrotation Yrotation Xrotation
													End Site
													{
														OFFSET 0.000000 0.000000 0.100006
													}
												}
											}
										}
									}
									JOINT LeftHandPinky1
									{
										OFFSET 0.173504 4.467197 7.976990
										CHANNELS 6 Xposition Yposition Zposition Zrotation Yrotation Xrotation
										JOINT LeftHandPinky2
										{
											OFFSET 0.000000 0.000000 3.350403
											CHANNELS 6 Xposition Yposition Zposition Zrotation Yrotation Xrotation
											JOINT LeftHandPinky3
											{
												OFFSET 0.000000 0.000000 2.842758
												CHANNELS 6 Xposition Yposition Zposition Zrotation Yrotation Xrotation
												JOINT LeftHandPinky4
												{
													OFFSET 0.000000 0.000000 2.639709
													CHANNELS 6 Xposition Yposition Zposition Zrotation Yrotation Xrotation
													End Site
													{
														OFFSET 0.000000 0.000000 0.100006
													}
												}
											}
										}
									}
									JOINT LeftForeArmEnd
									{
										OFFSET 0.000000 0.000000 0.000000
										CHANNELS 6 Xposition Yposition Zposition Zrotation Yrotation Xrotation
										End Site
										{
											OFFSET 0.000000 0.000000 0.100006
										}
									}
								}
								JOINT LeftArmEnd
								{
									OFFSET 0.000000 0.000000 0.000000
									CHANNELS 6 Xposition Yposition Zposition Zrotation Yrotation Xrotation
									End Site
									{
										OFFSET 0.000000 0.000000 0.100006
									}
								}
							}
						}
					}
				}
			}
		}
	}
	JOINT RightUpLeg
	{
		OFFSET -11.289944 0.000000 0.000000
		CHANNELS 6 Xposition Yposition Zposition Zrotation Yrotation Xrotation
		JOINT RightLeg
		{
			OFFSET 0.000000 -0.000004 -38.200321
			CHANNELS 6 Xposition Yposition Zposition Zrotation Yrotation Xrotation
			JOINT RightFoot
			{
				OFFSET 0.000000 -0.000004 -39.900856
				CHANNELS 6 Xposition Yposition Zposition Zrotation Yrotation Xrotation
				JOINT RightToeBase
				{
					OFFSET 0.000000 -15.261642 0.000001
					CHANNELS 6 Xposition Yposition Zposition Zrotation Yrotation Xrotation
					JOINT RightToeBaseEnd
					{
						OFFSET 0.000000 -7.370712 0.000001
						CHANNELS 6 Xposition Yposition Zposition Zrotation Yrotation Xrotation
						End Site
						{
							OFFSET 0.000000 0.000000 0.100000
						}
					}
				}
				JOINT RightLegEnd
				{
					OFFSET 0.000000 0.000000 0.000000
					CHANNELS 6 Xposition Yposition Zposition Zrotation Yrotation Xrotation
					End Site
					{
						OFFSET 0.000000 0.000000 0.100000
					}
				}
			}
			JOINT RightUpLegEnd
			{
				OFFSET 0.000000 0.000000 0.000000
				CHANNELS 6 Xposition Yposition Zposition Zrotation Yrotation Xrotation
				End Site
				{
					OFFSET 0.000000 0.000000 0.099998
				}
			}
		}
	}
	JOINT LeftUpLeg
	{
		OFFSET 11.315661 0.000000 0.000000
		CHANNELS 6 Xposition Yposition Zposition Zrotation Yrotation Xrotation
		JOINT LeftLeg
		{
			OFFSET 0.000000 -0.000004 -38.200321
			CHANNELS 6 Xposition Yposition Zposition Zrotation Yrotation Xrotation
			JOINT LeftFoot
			{
				OFFSET 0.000000 -0.000004 -39.900856
				CHANNELS 6 Xposition Yposition Zposition Zrotation Yrotation Xrotation
				JOINT LeftToeBase
				{
					OFFSET 0.000000 -15.261642 0.000001
					CHANNELS 6 Xposition Yposition Zposition Zrotation Yrotation Xrotation
					JOINT LeftToeBaseEnd
					{
						OFFSET 0.000000 -7.539993 0.000001
						CHANNELS 6 Xposition Yposition Zposition Zrotation Yrotation Xrotation
						End Site
						{
							OFFSET 0.000000 0.000000 0.100000
						}
					}
				}
				JOINT LeftLegEnd
				{
					OFFSET 0.000000 0.000000 0.000000
					CHANNELS 6 Xposition Yposition Zposition Zrotation Yrotation Xrotation
					End Site
					{
						OFFSET 0.000000 0.000000 0.100000
					}
				}
			}
			JOINT LeftUpLegEnd
			{
				OFFSET 0.000000 0.000000 0.000000
				CHANNELS 6 Xposition Yposition Zposition Zrotation Yrotation Xrotation
				End Site
				{
					OFFSET 0.000000 0.000000 0.099998
				}
			}
		}
	}
}
MOTION
Frames: 2
Frame Time: 0.016667
2.403259 -16.035309 87.142044 -9.904795 3.843851 -5.811730 0.000001 2.080104 8.814246 -0.165292 0.169100 3.145208 -0.000000 -0.000001 8.844128 -0.314382 -0.994411 0.983841 0.000001 0.000005 11.682263 -5.899090 -5.223108 11.429423 0.000000 0.000007 11.746704 -1.384313 -1.082724 2.943340 -0.000001 -0.000007 17.658272 2.090911 -5.464947 9.511493 0.000002 0.000008 5.101533 2.081469 3.382463 -9.782655 0.000003 -0.000005 5.101546 3.117141 0.272985 -23.693306 0.000002 0.000001 11.655105 0.000001 -0.000000 0.000001 -2.625395 -0.000001 11.175220 6.039597 -90.715021 -0.105299 0.000007 0.000003 10.434711 -39.099626 -64.950454 33.375818 0.000000 -0.000004 29.628407 28.663155 -6.472373 26.367798 -0.000003 0.000000 22.857628 16.698964 2.036721 -10.702157 -2.867327 -2.944293 3.959565 31.715901 -16.574115 52.574398 -0.000001 -0.000014 3.350408 -11.148295 7.772993 -20.315296 0.000001 -0.000001 3.756520 -7.442963 5.826207 -13.925653 0.000001 -0.000003 3.147355 0.000000 -0.000001 -0.000001 -0.086758 -2.345286 10.030958 -10.626571 -10.666308 3.706979 -0.000003 0.000000 4.061118 0.421917 -7.811051 1.105061 -0.000003 0.000005 3.248907 -0.078442 -7.811049 1.105098 -0.000005 0.000004 2.639695 -0.000000 0.000001 -0.000001 0.104097 -0.006769 9.502952 -5.710579 -11.877849 1.129942 0.000002 0.000001 4.568753 0.468971 -8.466340 0.443977 -0.000003 -0.000000 3.655004 -0.034256 -8.466037 0.444574 -0.000002 0.000000 2.741256 -0.000000 0.000001 0.000001 0.086741 2.267440 8.921745 2.107398 -14.006291 -1.232686 -0.000000 0.000002 4.061098 -0.947520 -9.977441 -0.616673 -0.000004 0.000002 3.654998 0.055066 -9.977431 -0.617078 -0.000002 -0.000004 2.741241 0.000000 -0.000001 0.000001 -0.173507 4.467196 7.976994 10.640348 -14.457458 -5.811615 0.000000 -0.000005 3.350422 -1.795798 -10.737125 -2.113395 0.000000 -0.000003 2.842757 0.204711 -10.737072 -2.113485 0.000002 -0.000001 2.639725 0.000001 0.000000 -0.000000 -0.000001 0.000002 0.000030 -0.000002 -0.000001 0.000000 -0.000002 -0.000001 0.000016 0.000001 0.000001 -0.000000 2.625393 -0.000001 11.175233 -8.430299 87.567881 -0.599205 -0.000010 -0.000007 10.813625 57.949640 41.848730 58.402475 -0.000001 0.000013 28.724789 -2.608445 0.184990 46.941602 0.644385 0.328861 25.716141 -12.392694 -2.717471 -24.714117 2.867320 -2.944296 3.959570 -32.088888 14.722003 55.537248 -0.000001 0.000004 3.350415 7.118222 -5.629100 -13.352976 0.000002 -0.000003 3.756525 4.801585 -4.087750 -9.191232 -0.000001 0.000002 3.100007 -0.000000 0.000000 -0.000000 0.086749 -2.345284 10.030890 -8.201451 1.318883 -2.462972 -0.000004 0.000005 4.061111 0.537051 1.174331 -0.164272 0.000000 0.000005 3.248873 0.035983 1.174338 -0.164289 0.000005 -0.000000 2.639740 0.000005 -0.000000 0.000000 -0.104103 -0.006768 9.502964 -3.341423 0.561968 -4.535445 -0.000004 -0.000002 4.568734 0.613075 0.597908 -0.029990 0.000000 0.000002 3.654994 0.096424 0.593858 -0.030205 -0.000001 0.000001 2.741242 -0.000001 0.000000 -0.000001 -0.086755 2.267436 8.921719 4.235657 -1.010463 -5.085612 -0.000002 -0.000000 4.061065 -1.034290 0.000018 0.000065 -0.000000 -0.000002 3.654969 -0.021910 0.000001 0.011827 0.000001 0.000000 2.741257 -0.000000 -0.000000 -0.000000 0.173502 4.467197 7.977012 12.185194 -3.267063 -5.608183 0.000000 -0.000001 3.350416 -2.036166 -0.052321 0.001750 -0.000010 -0.000008 2.842764 -0.028872 0.028320 -0.004581 0.000001 0.000001 2.639725 0.000002 -0.000001 -0.000000 -0.000002 -0.000005 0.000015 0.000001 -0.000002 -0.000000 -0.000002 -0.000005 -0.000016 0.000001 -0.000000 0.000001 -11.289942 -0.000004 0.000001 8.048382 3.131650 -3.155025 -0.000000 -0.000008 -38.200306 -0.669514 0.260815 21.282910 -0.000000 -0.000004 -39.900860 -5.872063 -2.099634 21.956219 -0.000001 -15.261654 0.000008 -1.478653 0.351298 -32.130706 0.000001 -7.370712 0.000002 -0.000000 0.000000 -0.000000 -0.000002 -0.000003 -0.000000 -0.000001 0.000000 0.000002 -0.000002 -0.000007 0.000004 0.000000 0.000000 0.000000 11.315660 -0.000012 -0.000006 0.695909 -1.905826 1.292160 -0.000002 -0.000004 -38.200325 0.321683 -0.124449 21.149204 -0.000001 -0.000007 -39.900856 5.306116 -6.820956 9.383647 -0.000002 -15.261660 0.000007 0.652731 0.344396 -28.582433 0.000000 -7.539993 0.000002 0.000000 0.000000 -0.000000 -0.000003 -0.000000 0.000000 0.000001 -0.000001 -0.000000 -0.000002 -0.000004 0.000007 -0.000000 0.000000 0.000001 
1.972544 -16.136539 87.055756 -9.799473 3.417522 -5.904143 -0.000001 2.080112 8.814248 -0.143101 0.120567 3.227825 -0.000001 0.000001 8.844145 -0.313828 -1.069039 0.859926 0.000002 -0.000003 11.682277 -5.583222 -4.806548 11.441780 -0.000002 0.000002 11.746711 -1.315821 -0.919603 3.015500 -0.000001 -0.000003 17.658268 2.477545 -4.498455 9.116198 0.000000 0.000004 5.101524 1.793120 3.581882 -10.162302 -0.000004 0.000001 5.101515 3.081117 0.310663 -23.460771 0.000000 0.000003 11.655075 0.000001 -0.000000 0.000000 -2.625398 0.000001 11.175222 5.878505 -90.207866 0.123958 -0.000023 -0.000002 10.434717 -39.615411 -65.720265 34.204324 0.000002 0.000000 29.628429 28.490770 -6.369046 26.289933 -0.000005 0.000001 22.857649 17.073926 2.271796 -10.351494 -2.867325 -2.944292 3.959556 31.715919 -16.574099 52.574340 0.000003 -0.000001 3.350415 -11.148262 7.773030 -20.315076 -0.000003 0.000001 3.756487 -7.443004 5.826175 -13.925759 -0.000000 0.000006 3.147369 0.000002 -0.000000 0.000001 -0.086761 -2.345285 10.030915 -10.631421 -10.716690 3.503379 0.000000 -0.000000 4.061107 0.423464 -7.824636 1.106246 -0.000002 -0.000001 3.248886 -0.076871 -7.824875 1.106329 -0.000001 0.000001 2.639727 -0.000001 0.000001 -0.000003 0.104097 -0.006773 9.502939 -5.715370 -11.916304 0.980200 -0.000000 -0.000001 4.568756 0.469767 -8.486795 0.445366 -0.000004 -0.000002 3.655007 -0.033276 -8.486823 0.445827 -0.000002 -0.000000 2.741258 0.000001 0.000001 -0.000001 0.086741 2.267440 8.921751 2.097973 -14.046928 -1.409966 -0.000002 0.000001 4.061101 -0.948863 -10.016076 -0.617921 -0.000005 -0.000002 3.654974 0.053973 -10.016075 -0.618567 0.000004 0.000001 2.741242 -0.000003 -0.000001 -0.000001 -0.173506 4.467193 7.976997 10.624642 -14.478579 -6.061221 -0.000002 0.000006 3.350425 -1.798074 -10.790423 -2.123372 -0.000004 0.000001 2.842777 0.202562 -10.790656 -2.123512 -0.000002 -0.000000 2.639724 -0.000001 0.000000 0.000001 -0.000003 -0.000005 0.000017 0.000000 0.000001 -0.000001 -0.000005 0.000004 0.000030 0.000000 0.000000 0.000001 2.625402 0.000000 11.175220 -8.399969 87.247805 -0.637577 0.000017 -0.000007 10.813623 58.073916 42.383994 58.682711 0.000001 -0.000006 28.724796 -2.494276 0.113290 47.015266 0.644389 0.328869 25.716171 -13.664070 -4.032999 -24.416996 2.867332 -2.944302 3.959564 -32.220635 14.232668 56.352838 0.000000 0.000003 3.350415 6.069827 -4.961970 -11.486750 0.000001 -0.000003 3.756501 4.107949 -3.576640 -7.916128 -0.000000 -0.000006 3.100006 -0.000001 0.000002 0.000000 0.086752 -2.345286 10.030893 -9.024317 -2.865143 0.386281 0.000000 0.000003 4.061124 0.536681 -0.044124 -0.000418 -0.000000 -0.000000 3.248872 0.035360 0.024572 0.000234 0.000000 0.000004 2.639711 -0.000002 0.000002 -0.000001 -0.104097 -0.006769 9.502936 -4.049914 -3.266702 -2.534498 0.000000 -0.000000 4.568717 0.615096 -0.000005 0.000009 -0.000004 0.000004 3.654975 0.098245 0.000003 -0.000007 -0.000004 0.000002 2.741241 0.000001 -0.000001 -0.000000 -0.086753 2.267437 8.921705 3.789081 -3.665637 -4.514809 0.000001 -0.000003 4.061124 -1.036501 0.000013 0.000066 -0.000001 0.000002 3.654979 -0.023613 -0.000015 0.012061 0.000001 -0.000000 2.741226 0.000000 0.000001 0.000000 0.173501 4.467197 7.976975 12.018415 -4.159356 -6.211054 -0.000002 0.000002 3.350392 -2.036711 -0.000016 -0.000114 -0.000002 -0.000003 2.842768 -0.029286 -0.000002 -0.004657 0.000003 -0.000002 2.639710 0.000001 0.000001 0.000000 0.000001 0.000000 -0.000015 0.000002 0.000000 -0.000001 -0.000003 0.000001 0.000012 -0.000002 -0.000005 0.000002 -11.289942 -0.000005 0.000006 7.718328 3.166465 -2.705629 -0.000000 -0.000018 -38.200317 -0.761651 0.327357 23.256898 0.000004 -0.000008 -39.900856 -6.385996 -2.184219 20.256324 -0.000001 -15.261654 0.000005 -1.503616 0.357659 -31.883019 -0.000001 -7.370712 0.000002 -0.000001 0.000000 -0.000000 0.000000 -0.000008 -0.000001 0.000001 -0.000001 -0.000001 -0.000000 -0.000008 0.000009 -0.000000 0.000001 -0.000001 11.315659 -0.000004 0.000008 0.765107 -1.801938 1.508702 0.000001 -0.000012 -38.200325 0.350683 -0.135572 21.135660 -0.000000 -0.000009 -39.900860 5.065389 -6.548423 9.303972 -0.000001 -15.261658 0.000006 0.608708 0.326505 -28.529234 0.000001 -7.540001 0.000003 -0.000000 -0.000000 0.000000 -0.000001 -0.000004 0.000000 -0.000000 0.000000 0.000003 -0.000001 -0.000009 0.000009 0.000000 0.000000 0.000003 
